<svg xmlns="http://www.w3.org/2000/svg" width="52" height="52" viewBox="0 0 52 52"><defs><style>.a,.d{fill:none;}.a{stroke:#000;stroke-linecap:round;stroke-linejoin:round;stroke-width:2px;opacity:0.99;}.b{font-size:44px;font-family:TimesNewRomanPSMT, Times New Roman;}.c{stroke:none;}</style></defs><g transform="translate(-1237 -235)"><g class="a" transform="translate(1237 235)"><path class="c" d="M26,0h0A26,26,0,0,1,52,26v0A26,26,0,0,1,26,52h-.929A25.071,25.071,0,0,1,0,26.929V26A26,26,0,0,1,26,0Z"/><path class="d" d="M26,1h0A25,25,0,0,1,51,26v0A25,25,0,0,1,26,51h-.926A24.074,24.074,0,0,1,1,26.926V26A25,25,0,0,1,26,1Z"/></g><text class="b" transform="translate(1257 274)"><tspan x="0" y="0">i</tspan></text></g></svg>